<svg width="80" height="80" fill="none" xmlns="http://www.w3.org/2000/svg"><g clip-path="url(#a)" fill="#fff"><path d="m74.928 3.13-1.29-.322a90.07 90.07 0 0 0-43.53 0l-1.288.322a6.689 6.689 0 0 0-5.073 6.497v9.326a90.14 90.14 0 0 0-19.131 7.888l-1.17.644A6.673 6.673 0 0 0 .233 35.07L4.13 49.644a41.546 41.546 0 0 0 25.912 28.26l4.018 1.474A12.116 12.116 0 0 0 47.42 75.79l2.744-3.277a40.766 40.766 0 0 0 6.223-10.078c.844-.328 1.65-.752 2.399-1.262l3.503-2.452A41.56 41.56 0 0 0 80 24.704V9.627a6.69 6.69 0 0 0-5.072-6.497ZM48.114 70.79l-2.744 3.28a9.425 9.425 0 0 1-10.394 2.79l-4.018-1.473A38.87 38.87 0 0 1 6.718 48.95l-3.9-14.575a4 4 0 0 1 1.927-4.543l1.168-.645a87.474 87.474 0 0 1 17.834-7.447v2.964a41.552 41.552 0 0 0 14.246 31.289 25.318 25.318 0 0 1-7.377 1.771l-10.072.817a1.34 1.34 0 0 0-.443 2.557l13.352 6.028a6.696 6.696 0 0 0 8.204-2.194l2.922-4.065.382.267a12.049 12.049 0 0 0 6.913 2.17c.401 0 .79-.05 1.185-.09a38.235 38.235 0 0 1-4.945 7.537Zm-7.759-12.89c.366.268.722.557 1.098.82l.927.648-2.903 4.04a4.019 4.019 0 0 1-4.923 1.313l-8.622-3.884 4.9-.401a28.047 28.047 0 0 0 9.523-2.536Zm36.967-33.197a38.876 38.876 0 0 1-16.567 31.822l-3.503 2.452a9.407 9.407 0 0 1-10.756 0l-3.502-2.452a38.875 38.875 0 0 1-16.569-31.822V9.627A4.018 4.018 0 0 1 29.47 5.73l1.29-.322a87.36 87.36 0 0 1 42.23 0l1.29.322a4.018 4.018 0 0 1 3.043 3.898v15.077Z"/><path d="m46.908 25.143 1.827-1.961c-4.188-4.178-10.967-4.178-15.154 0l-.067.067 1.96 1.827a8.037 8.037 0 0 1 11.434.067ZM55.01 23.182l-.066.067 1.96 1.827a8.037 8.037 0 0 1 11.434.067l1.827-1.961c-4.188-4.178-10.967-4.178-15.154 0ZM19.098 44.554a8.036 8.036 0 0 1 6.19.855l1.248-2.372c-5.125-2.96-11.678-1.204-14.637 3.92l-.047.082 1.159.67 1.205.586a7.977 7.977 0 0 1 4.882-3.74ZM66.366 37.61l-9.94 1.81c-3.01.548-6.096.548-9.107 0l-9.941-1.81a1.339 1.339 0 0 0-1.088 2.355l11.342 9.277a6.717 6.717 0 0 0 8.481 0l11.34-9.28a1.338 1.338 0 0 0-1.087-2.354v.003Zm-11.948 9.561a4.027 4.027 0 0 1-5.09 0l-7.332-5.998 4.844.88c3.327.609 6.736.609 10.062 0l4.845-.88-7.33 5.998Z"/></g><defs><clipPath id="a"><path fill="#fff" d="M0 0h80v80H0z"/></clipPath></defs></svg>