<svg width="70" height="70" fill="none" xmlns="http://www.w3.org/2000/svg"><rect x="2" y="2" width="66" height="66" rx="12" stroke="url(#a)" stroke-width="4"/><path d="M47.517 51.04c-1.733 0-2.973-.493-3.72-1.48-.746-1.013-1.12-2.493-1.12-4.44 0-1.947.627-6.427 1.88-13.44h-.64c-1.626 2.133-2.973 4.68-4.04 7.64-1.066 2.96-1.72 5.627-1.96 8-1.306 1.227-2.813 1.84-4.52 1.84-.693 0-1.306-.24-1.84-.72-.506-.507-1.013-1.373-1.52-2.6-.986-2.48-1.693-7.2-2.12-14.16h-.64c-1.306 5.733-1.96 9.773-1.96 12.12 0 2.347.4 4.16 1.2 5.44-1.6 1.2-3.266 1.8-5 1.8-1.733 0-2.973-.493-3.72-1.48-.746-1.013-1.12-2.507-1.12-4.48 0-2 .84-7.64 2.52-16.92l-2.12-4.28c3.014-1.947 5.76-2.92 8.24-2.92 1.094 0 2.014.12 2.76.36.774.213 1.507.64 2.2 1.28.72.64 1.307 1.533 1.76 2.68 1.04 2.587 1.787 6.36 2.24 11.32h.48c1.387-4.08 3.307-7.587 5.76-10.52a14.688 14.688 0 0 1 4.76-3.72c1.867-.907 3.88-1.36 6.04-1.36 2.054 0 3.08 1.24 3.08 3.72 0 .827-.52 3.907-1.56 9.24-1.013 5.307-1.52 8.467-1.52 9.48 0 2.587.4 4.52 1.2 5.8-1.6 1.2-3.266 1.8-5 1.8Z" fill="#fff"/><defs><linearGradient id="a" x1="0" y1="5" x2="70" y2="70" gradientUnits="userSpaceOnUse"><stop stop-color="#326CFF"/><stop offset="1" stop-color="#26FFF2"/></linearGradient></defs></svg>