<svg width="114" height="114" fill="none" xmlns="http://www.w3.org/2000/svg"><g clip-path="url(#a)" fill="#fff"><path d="M55.175 73.837 40.17 58.026a1.081 1.081 0 0 1 .04-1.529L64.757 33.2l.085-.08c4.888-3.725 11.3-4.686 19.6-2.938a1.08 1.08 0 0 1 .845.89c1.319 8.386.02 14.736-3.963 19.421-.024.03-.05.057-.078.084L56.699 73.873a1.081 1.081 0 0 1-1.524-.036ZM42.482 57.32l13.517 14.243L79.72 49.052c3.457-4.091 4.591-9.477 3.548-16.897-7.354-1.425-12.792-.574-17.063 2.658L42.482 57.32Z"/><path d="M34.715 55.523a1.084 1.084 0 0 1-.295-.815l.145-2.153a11.428 11.428 0 0 1 7.33-9.986l.132-.05a18.195 18.195 0 0 1 13.544.383 1.08 1.08 0 0 1 .26 1.751l-11.033 10.47a1.081 1.081 0 0 1-1.015.262 14.453 14.453 0 0 0-7.894.404 1.082 1.082 0 0 1-1.029-.141 1.12 1.12 0 0 1-.145-.125Zm7.557-11.94.376 1.012a9.261 9.261 0 0 0-5.926 8.105l-.04.606a16.414 16.414 0 0 1 7.051-.153l9.354-8.877a16.533 16.533 0 0 0-10.322.275l-.493-.968ZM57.395 79.421a1.083 1.083 0 0 1-.207-1.184 14.453 14.453 0 0 0 .817-7.861 1.082 1.082 0 0 1 .314-1l11.035-10.473a1.08 1.08 0 0 1 1.735.35 18.194 18.194 0 0 1-.326 13.546l-.056.13a11.427 11.427 0 0 1-10.356 6.798l-2.157.032a1.08 1.08 0 0 1-.799-.338Zm2.839-8.881c.338 2.354.16 4.755-.522 7.034l.607-.01a9.262 9.262 0 0 0 8.402-5.49l1.04.31-.995-.42a16.534 16.534 0 0 0 .813-10.294l-9.345 8.87ZM69.216 45.493a5.694 5.694 0 1 1 8.049.21 5.7 5.7 0 0 1-8.05-.21Zm6.691-6.35a3.531 3.531 0 1 0-5.125 4.86 3.531 3.531 0 0 0 5.125-4.86ZM51.163 76.102 37.698 61.914a1.08 1.08 0 0 1 .04-1.529l3.242-3.076a1.081 1.081 0 0 1 1.528.04l13.465 14.188a1.08 1.08 0 0 1-.04 1.528l-3.242 3.077a1.081 1.081 0 0 1-1.528-.04ZM40.01 61.209l11.976 12.62 1.673-1.588-11.976-12.62-1.673 1.588Z"/><path d="M30.17 82.648a3.602 3.602 0 0 1-.483-3.996 26.848 26.848 0 0 0 1.787-6.733c.638-3.948 1.141-7.067 8.077-10.147a1.082 1.082 0 0 1 1.224.243L51.21 73.012a1.081 1.081 0 0 1 .18 1.235 17.984 17.984 0 0 1-3.416 4.933c-2.213 2.1-4.479 2.367-7.102 2.676a27.15 27.15 0 0 0-6.751 1.47 3.58 3.58 0 0 1-3.948-.673l-.005-.005Zm9.569-18.584c-5.204 2.462-5.54 4.544-6.13 8.202a29.065 29.065 0 0 1-1.93 7.232c-.294.692-.271 1.315.06 1.663.328.346.94.396 1.638.14a29.398 29.398 0 0 1 7.245-1.59c2.513-.298 4.175-.491 5.867-2.096a14.63 14.63 0 0 0 2.625-3.673l-9.375-9.878Z"/><path d="M37.56 75.582a2.378 2.378 0 0 1-.348-2.612c.435-1.062.731-2.175.88-3.313.325-1.99.607-3.706 3.853-5.31a1.081 1.081 0 0 1 1.26.228l5.581 5.882a1.082 1.082 0 0 1 .161 1.269 8.733 8.733 0 0 1-1.548 2.1 6.054 6.054 0 0 1-3.931 1.51c-1.134.1-2.25.344-3.321.725a2.37 2.37 0 0 1-2.583-.476l-.003-.003Zm4.641-8.923c-1.587.937-1.721 1.759-1.98 3.344a15.348 15.348 0 0 1-1.021 3.808.561.561 0 0 0-.06.295c0-.024.099-.018.256-.077a15.426 15.426 0 0 1 3.822-.841 4.072 4.072 0 0 0 2.694-.93c.28-.276.53-.583.74-.914l-4.451-4.685ZM52.04 61.793a1.081 1.081 0 0 1 .04-1.529l4.597-4.362a1.08 1.08 0 1 1 1.488 1.568l-4.596 4.363a1.08 1.08 0 0 1-1.529-.04ZM48.562 58.089a1.081 1.081 0 0 1 .04-1.529l2.021-1.918a1.08 1.08 0 1 1 1.489 1.568l-2.022 1.919a1.081 1.081 0 0 1-1.528-.04ZM55.548 65.45a1.08 1.08 0 0 1 .04-1.528l2.022-1.918a1.081 1.081 0 1 1 1.488 1.568l-2.021 1.918a1.08 1.08 0 0 1-1.529-.04Z"/></g><defs><clipPath id="a"><path fill="#fff" transform="rotate(46.498 29.015 67.536)" d="M0 0h80v80H0z"/></clipPath></defs></svg>